solid OpenSCAD_Model
  facet normal 0 0 -1
    outer loop
      vertex -6 0 -1.75
      vertex -5.70634 1.8541 -1.75
      vertex -5.70634 -1.8541 -1.75
    endloop
  endfacet
  facet normal 0 0 -1
    outer loop
      vertex -5.70634 -1.8541 -1.75
      vertex -5.70634 1.8541 -1.75
      vertex -4.8541 3.52671 -1.75
    endloop
  endfacet
  facet normal 0 0 -1
    outer loop
      vertex -5.70634 -1.8541 -1.75
      vertex -4.8541 3.52671 -1.75
      vertex -3.52671 4.8541 -1.75
    endloop
  endfacet
  facet normal 0 0 -1
    outer loop
      vertex -5.70634 -1.8541 -1.75
      vertex -3.52671 4.8541 -1.75
      vertex -1.8541 5.70634 -1.75
    endloop
  endfacet
  facet normal 0 0 -1
    outer loop
      vertex -5.70634 -1.8541 -1.75
      vertex -1.8541 5.70634 -1.75
      vertex 0 6 -1.75
    endloop
  endfacet
  facet normal 0 0 -1
    outer loop
      vertex -5.70634 -1.8541 -1.75
      vertex 0 6 -1.75
      vertex 1.8541 5.70634 -1.75
    endloop
  endfacet
  facet normal 0 0 -1
    outer loop
      vertex -5.70634 -1.8541 -1.75
      vertex 1.8541 5.70634 -1.75
      vertex 3.52671 4.8541 -1.75
    endloop
  endfacet
  facet normal 0 0 -1
    outer loop
      vertex -5.70634 -1.8541 -1.75
      vertex 3.52671 4.8541 -1.75
      vertex 4.8541 3.52671 -1.75
    endloop
  endfacet
  facet normal 0 0 -1
    outer loop
      vertex -5.70634 -1.8541 -1.75
      vertex 4.8541 3.52671 -1.75
      vertex 5.70634 1.8541 -1.75
    endloop
  endfacet
  facet normal 0 0 -1
    outer loop
      vertex -5.70634 -1.8541 -1.75
      vertex 5.70634 1.8541 -1.75
      vertex 6 0 -1.75
    endloop
  endfacet
  facet normal 0 0 -1
    outer loop
      vertex -5.70634 -1.8541 -1.75
      vertex 6 0 -1.75
      vertex 5.70634 -1.8541 -1.75
    endloop
  endfacet
  facet normal 0 0 -1
    outer loop
      vertex -5.70634 -1.8541 -1.75
      vertex 5.70634 -1.8541 -1.75
      vertex 4.8541 -3.52671 -1.75
    endloop
  endfacet
  facet normal 0 0 -1
    outer loop
      vertex -5.70634 -1.8541 -1.75
      vertex 4.8541 -3.52671 -1.75
      vertex 3.52671 -4.8541 -1.75
    endloop
  endfacet
  facet normal 0 0 -1
    outer loop
      vertex -5.70634 -1.8541 -1.75
      vertex 3.52671 -4.8541 -1.75
      vertex 1.8541 -5.70634 -1.75
    endloop
  endfacet
  facet normal 0 0 -1
    outer loop
      vertex -5.70634 -1.8541 -1.75
      vertex 1.8541 -5.70634 -1.75
      vertex 0 -6 -1.75
    endloop
  endfacet
  facet normal 0 0 -1
    outer loop
      vertex -5.70634 -1.8541 -1.75
      vertex 0 -6 -1.75
      vertex -1.8541 -5.70634 -1.75
    endloop
  endfacet
  facet normal 0 0 -1
    outer loop
      vertex -5.70634 -1.8541 -1.75
      vertex -1.8541 -5.70634 -1.75
      vertex -3.52671 -4.8541 -1.75
    endloop
  endfacet
  facet normal 0 0 -1
    outer loop
      vertex -5.70634 -1.8541 -1.75
      vertex -3.52671 -4.8541 -1.75
      vertex -4.8541 -3.52671 -1.75
    endloop
  endfacet
  facet normal -0.702714 0.111299 0.702713
    outer loop
      vertex -5.70634 1.8541 -1.75
      vertex -6 0 -1.75
      vertex -4.75528 1.54508 -0.75
    endloop
  endfacet
  facet normal -0.702714 0.111299 0.702714
    outer loop
      vertex -4.75528 1.54508 -0.75
      vertex -6 0 -1.75
      vertex -5 0 -0.75
    endloop
  endfacet
  facet normal -0.702714 -0.111299 0.702714
    outer loop
      vertex -5 0 -0.75
      vertex -6 0 -1.75
      vertex -5.70634 -1.8541 -1.75
    endloop
  endfacet
  facet normal -0.702714 -0.111299 0.702713
    outer loop
      vertex -5 0 -0.75
      vertex -5.70634 -1.8541 -1.75
      vertex -4.75528 -1.54508 -0.75
    endloop
  endfacet
  facet normal -0.633927 -0.323002 0.702713
    outer loop
      vertex -4.75528 -1.54508 -0.75
      vertex -5.70634 -1.8541 -1.75
      vertex -4.8541 -3.52671 -1.75
    endloop
  endfacet
  facet normal -0.633927 -0.323002 0.702714
    outer loop
      vertex -4.75528 -1.54508 -0.75
      vertex -4.8541 -3.52671 -1.75
      vertex -4.04508 -2.93893 -0.75
    endloop
  endfacet
  facet normal -0.503087 -0.503087 0.702714
    outer loop
      vertex -4.04508 -2.93893 -0.75
      vertex -4.8541 -3.52671 -1.75
      vertex -3.52671 -4.8541 -1.75
    endloop
  endfacet
  facet normal -0.503087 -0.503087 0.702714
    outer loop
      vertex -2.93893 -4.04508 -0.75
      vertex -4.04508 -2.93893 -0.75
      vertex -3.52671 -4.8541 -1.75
    endloop
  endfacet
  facet normal -0.323002 -0.633927 0.702714
    outer loop
      vertex -2.93893 -4.04508 -0.75
      vertex -3.52671 -4.8541 -1.75
      vertex -1.8541 -5.70634 -1.75
    endloop
  endfacet
  facet normal -0.323002 -0.633927 0.702713
    outer loop
      vertex -1.54508 -4.75528 -0.75
      vertex -2.93893 -4.04508 -0.75
      vertex -1.8541 -5.70634 -1.75
    endloop
  endfacet
  facet normal -0.111299 -0.702714 0.702713
    outer loop
      vertex -1.54508 -4.75528 -0.75
      vertex -1.8541 -5.70634 -1.75
      vertex 0 -6 -1.75
    endloop
  endfacet
  facet normal -0.111299 -0.702714 0.702714
    outer loop
      vertex 0 -5 -0.75
      vertex -1.54508 -4.75528 -0.75
      vertex 0 -6 -1.75
    endloop
  endfacet
  facet normal 0.111299 -0.702714 0.702714
    outer loop
      vertex 0 -5 -0.75
      vertex 0 -6 -1.75
      vertex 1.8541 -5.70634 -1.75
    endloop
  endfacet
  facet normal 0.111299 -0.702714 0.702713
    outer loop
      vertex 1.54508 -4.75528 -0.75
      vertex 0 -5 -0.75
      vertex 1.8541 -5.70634 -1.75
    endloop
  endfacet
  facet normal 0.323002 -0.633927 0.702713
    outer loop
      vertex 3.52671 -4.8541 -1.75
      vertex 1.54508 -4.75528 -0.75
      vertex 1.8541 -5.70634 -1.75
    endloop
  endfacet
  facet normal 0.323002 -0.633927 0.702714
    outer loop
      vertex 2.93893 -4.04508 -0.75
      vertex 1.54508 -4.75528 -0.75
      vertex 3.52671 -4.8541 -1.75
    endloop
  endfacet
  facet normal 0.503087 -0.503087 0.702714
    outer loop
      vertex 4.04508 -2.93893 -0.75
      vertex 2.93893 -4.04508 -0.75
      vertex 3.52671 -4.8541 -1.75
    endloop
  endfacet
  facet normal 0.503087 -0.503087 0.702714
    outer loop
      vertex 4.8541 -3.52671 -1.75
      vertex 4.04508 -2.93893 -0.75
      vertex 3.52671 -4.8541 -1.75
    endloop
  endfacet
  facet normal 0.633927 -0.323002 0.702714
    outer loop
      vertex 5.70634 -1.8541 -1.75
      vertex 4.04508 -2.93893 -0.75
      vertex 4.8541 -3.52671 -1.75
    endloop
  endfacet
  facet normal 0.633927 -0.323002 0.702713
    outer loop
      vertex 4.75528 -1.54508 -0.75
      vertex 4.04508 -2.93893 -0.75
      vertex 5.70634 -1.8541 -1.75
    endloop
  endfacet
  facet normal 0.702714 -0.111299 0.702713
    outer loop
      vertex 6 0 -1.75
      vertex 4.75528 -1.54508 -0.75
      vertex 5.70634 -1.8541 -1.75
    endloop
  endfacet
  facet normal 0.702714 -0.111299 0.702714
    outer loop
      vertex 5 0 -0.75
      vertex 4.75528 -1.54508 -0.75
      vertex 6 0 -1.75
    endloop
  endfacet
  facet normal 0.702714 0.111299 0.702714
    outer loop
      vertex 5.70634 1.8541 -1.75
      vertex 5 0 -0.75
      vertex 6 0 -1.75
    endloop
  endfacet
  facet normal 0.702714 0.111299 0.702713
    outer loop
      vertex 5.70634 1.8541 -1.75
      vertex 4.75528 1.54508 -0.75
      vertex 5 0 -0.75
    endloop
  endfacet
  facet normal 0.633927 0.323002 0.702713
    outer loop
      vertex 4.8541 3.52671 -1.75
      vertex 4.75528 1.54508 -0.75
      vertex 5.70634 1.8541 -1.75
    endloop
  endfacet
  facet normal 0.633927 0.323002 0.702714
    outer loop
      vertex 4.8541 3.52671 -1.75
      vertex 4.04508 2.93893 -0.75
      vertex 4.75528 1.54508 -0.75
    endloop
  endfacet
  facet normal 0.503087 0.503087 0.702714
    outer loop
      vertex 3.52671 4.8541 -1.75
      vertex 2.93893 4.04508 -0.75
      vertex 4.04508 2.93893 -0.75
    endloop
  endfacet
  facet normal 0.503087 0.503087 0.702714
    outer loop
      vertex 4.8541 3.52671 -1.75
      vertex 3.52671 4.8541 -1.75
      vertex 4.04508 2.93893 -0.75
    endloop
  endfacet
  facet normal 0.323002 0.633927 0.702714
    outer loop
      vertex 3.52671 4.8541 -1.75
      vertex 1.8541 5.70634 -1.75
      vertex 2.93893 4.04508 -0.75
    endloop
  endfacet
  facet normal 0.323002 0.633927 0.702713
    outer loop
      vertex 1.8541 5.70634 -1.75
      vertex 1.54508 4.75528 -0.75
      vertex 2.93893 4.04508 -0.75
    endloop
  endfacet
  facet normal 0.111299 0.702714 0.702713
    outer loop
      vertex 1.8541 5.70634 -1.75
      vertex 0 6 -1.75
      vertex 1.54508 4.75528 -0.75
    endloop
  endfacet
  facet normal 0.111299 0.702714 0.702714
    outer loop
      vertex 0 6 -1.75
      vertex 0 5 -0.75
      vertex 1.54508 4.75528 -0.75
    endloop
  endfacet
  facet normal -0.111299 0.702714 0.702714
    outer loop
      vertex 0 6 -1.75
      vertex -1.8541 5.70634 -1.75
      vertex 0 5 -0.75
    endloop
  endfacet
  facet normal -0.111299 0.702714 0.702713
    outer loop
      vertex 0 5 -0.75
      vertex -1.8541 5.70634 -1.75
      vertex -1.54508 4.75528 -0.75
    endloop
  endfacet
  facet normal -0.323002 0.633927 0.702713
    outer loop
      vertex -1.8541 5.70634 -1.75
      vertex -3.52671 4.8541 -1.75
      vertex -1.54508 4.75528 -0.75
    endloop
  endfacet
  facet normal -0.323002 0.633927 0.702714
    outer loop
      vertex -1.54508 4.75528 -0.75
      vertex -3.52671 4.8541 -1.75
      vertex -2.93893 4.04508 -0.75
    endloop
  endfacet
  facet normal -0.503087 0.503087 0.702714
    outer loop
      vertex -3.52671 4.8541 -1.75
      vertex -4.8541 3.52671 -1.75
      vertex -4.04508 2.93893 -0.75
    endloop
  endfacet
  facet normal -0.503087 0.503087 0.702714
    outer loop
      vertex -2.93893 4.04508 -0.75
      vertex -3.52671 4.8541 -1.75
      vertex -4.04508 2.93893 -0.75
    endloop
  endfacet
  facet normal -0.633927 0.323002 0.702714
    outer loop
      vertex -4.8541 3.52671 -1.75
      vertex -5.70634 1.8541 -1.75
      vertex -4.04508 2.93893 -0.75
    endloop
  endfacet
  facet normal -0.633927 0.323002 0.702713
    outer loop
      vertex -4.04508 2.93893 -0.75
      vertex -5.70634 1.8541 -1.75
      vertex -4.75528 1.54508 -0.75
    endloop
  endfacet
  facet normal 0 0 1
    outer loop
      vertex -4.75528 1.54508 -0.75
      vertex -5 0 -0.75
      vertex -4.75528 -1.54508 -0.75
    endloop
  endfacet
  facet normal 0 0 1
    outer loop
      vertex -2.93893 -4.04508 -0.75
      vertex -4.75528 1.54508 -0.75
      vertex -4.04508 -2.93893 -0.75
    endloop
  endfacet
  facet normal 0 0 1
    outer loop
      vertex -4.04508 -2.93893 -0.75
      vertex -4.75528 1.54508 -0.75
      vertex -4.75528 -1.54508 -0.75
    endloop
  endfacet
  facet normal 0 0 1
    outer loop
      vertex -1.54508 -4.75528 -0.75
      vertex -4.75528 1.54508 -0.75
      vertex -2.93893 -4.04508 -0.75
    endloop
  endfacet
  facet normal 0 0 1
    outer loop
      vertex 0 -5 -0.75
      vertex -4.75528 1.54508 -0.75
      vertex -1.54508 -4.75528 -0.75
    endloop
  endfacet
  facet normal 0 0 1
    outer loop
      vertex 1.54508 -4.75528 -0.75
      vertex -4.75528 1.54508 -0.75
      vertex 0 -5 -0.75
    endloop
  endfacet
  facet normal 0 0 1
    outer loop
      vertex 2.93893 -4.04508 -0.75
      vertex -4.75528 1.54508 -0.75
      vertex 1.54508 -4.75528 -0.75
    endloop
  endfacet
  facet normal 0 0 1
    outer loop
      vertex 4.04508 -2.93893 -0.75
      vertex -4.75528 1.54508 -0.75
      vertex 2.93893 -4.04508 -0.75
    endloop
  endfacet
  facet normal 0 0 1
    outer loop
      vertex -0.151418 -0.466018 -0.75
      vertex -4.75528 1.54508 -0.75
      vertex 4.04508 -2.93893 -0.75
    endloop
  endfacet
  facet normal 0 0 1
    outer loop
      vertex 0.151418 0.466018 -0.75
      vertex 0.288015 0.396418 -0.75
      vertex 5 0 -0.75
    endloop
  endfacet
  facet normal 0 0 1
    outer loop
      vertex 4.75528 1.54508 -0.75
      vertex -4.75528 1.54508 -0.75
      vertex 5 0 -0.75
    endloop
  endfacet
  facet normal 0 0 1
    outer loop
      vertex 4.04508 2.93893 -0.75
      vertex -4.75528 1.54508 -0.75
      vertex 4.75528 1.54508 -0.75
    endloop
  endfacet
  facet normal 0 0 1
    outer loop
      vertex 2.93893 4.04508 -0.75
      vertex -4.75528 1.54508 -0.75
      vertex 4.04508 2.93893 -0.75
    endloop
  endfacet
  facet normal 0 0 1
    outer loop
      vertex 1.54508 4.75528 -0.75
      vertex -4.75528 1.54508 -0.75
      vertex 2.93893 4.04508 -0.75
    endloop
  endfacet
  facet normal 0 0 1
    outer loop
      vertex 0 5 -0.75
      vertex -4.75528 1.54508 -0.75
      vertex 1.54508 4.75528 -0.75
    endloop
  endfacet
  facet normal 0 0 1
    outer loop
      vertex -1.54508 4.75528 -0.75
      vertex -4.75528 1.54508 -0.75
      vertex 0 5 -0.75
    endloop
  endfacet
  facet normal 0 0 1
    outer loop
      vertex -2.93893 4.04508 -0.75
      vertex -4.75528 1.54508 -0.75
      vertex -1.54508 4.75528 -0.75
    endloop
  endfacet
  facet normal 0 0 1
    outer loop
      vertex -4.04508 2.93893 -0.75
      vertex -4.75528 1.54508 -0.75
      vertex -2.93893 4.04508 -0.75
    endloop
  endfacet
  facet normal 0 0 1
    outer loop
      vertex -0.288015 -0.396418 -0.75
      vertex -0.396418 -0.288015 -0.75
      vertex -4.75528 1.54508 -0.75
    endloop
  endfacet
  facet normal 0 0 1
    outer loop
      vertex -0.49 0 -0.75
      vertex -4.75528 1.54508 -0.75
      vertex -0.466018 -0.151418 -0.75
    endloop
  endfacet
  facet normal 0 0 1
    outer loop
      vertex -0.466018 0.151418 -0.75
      vertex -4.75528 1.54508 -0.75
      vertex -0.49 0 -0.75
    endloop
  endfacet
  facet normal 0 0 1
    outer loop
      vertex 0.396418 -0.288015 -0.75
      vertex 0.288015 -0.396418 -0.75
      vertex 4.75528 -1.54508 -0.75
    endloop
  endfacet
  facet normal 0 0 1
    outer loop
      vertex 0.466018 -0.151418 -0.75
      vertex 0.396418 -0.288015 -0.75
      vertex 4.75528 -1.54508 -0.75
    endloop
  endfacet
  facet normal 0 0 1
    outer loop
      vertex -0.288015 0.396418 -0.75
      vertex -4.75528 1.54508 -0.75
      vertex -0.396418 0.288015 -0.75
    endloop
  endfacet
  facet normal 0 0 1
    outer loop
      vertex -0.151418 0.466018 -0.75
      vertex -4.75528 1.54508 -0.75
      vertex -0.288015 0.396418 -0.75
    endloop
  endfacet
  facet normal 0 0 1
    outer loop
      vertex 0 0.49 -0.75
      vertex -4.75528 1.54508 -0.75
      vertex -0.151418 0.466018 -0.75
    endloop
  endfacet
  facet normal 0 0 1
    outer loop
      vertex 5 0 -0.75
      vertex -4.75528 1.54508 -0.75
      vertex 0 0.49 -0.75
    endloop
  endfacet
  facet normal 0 0 1
    outer loop
      vertex 0.288015 0.396418 -0.75
      vertex 0.396418 0.288015 -0.75
      vertex 5 0 -0.75
    endloop
  endfacet
  facet normal 0 0 1
    outer loop
      vertex 5 0 -0.75
      vertex 0 0.49 -0.75
      vertex 0.151418 0.466018 -0.75
    endloop
  endfacet
  facet normal 0 0 1
    outer loop
      vertex 0.396418 0.288015 -0.75
      vertex 0.466018 0.151418 -0.75
      vertex 5 0 -0.75
    endloop
  endfacet
  facet normal 0 0 1
    outer loop
      vertex 0.49 0 -0.75
      vertex 0.466018 -0.151418 -0.75
      vertex 4.75528 -1.54508 -0.75
    endloop
  endfacet
  facet normal 0 0 1
    outer loop
      vertex 5 0 -0.75
      vertex 0.466018 0.151418 -0.75
      vertex 4.75528 -1.54508 -0.75
    endloop
  endfacet
  facet normal 0 0 1
    outer loop
      vertex 0.466018 0.151418 -0.75
      vertex 0.49 0 -0.75
      vertex 4.75528 -1.54508 -0.75
    endloop
  endfacet
  facet normal 0 0 1
    outer loop
      vertex 0.151418 -0.466018 -0.75
      vertex 0 -0.49 -0.75
      vertex 4.04508 -2.93893 -0.75
    endloop
  endfacet
  facet normal 0 0 1
    outer loop
      vertex 4.75528 -1.54508 -0.75
      vertex 0.288015 -0.396418 -0.75
      vertex 4.04508 -2.93893 -0.75
    endloop
  endfacet
  facet normal 0 0 1
    outer loop
      vertex 0.288015 -0.396418 -0.75
      vertex 0.151418 -0.466018 -0.75
      vertex 4.04508 -2.93893 -0.75
    endloop
  endfacet
  facet normal 0 0 1
    outer loop
      vertex 0 -0.49 -0.75
      vertex -0.151418 -0.466018 -0.75
      vertex 4.04508 -2.93893 -0.75
    endloop
  endfacet
  facet normal 0 0 1
    outer loop
      vertex -0.288015 -0.396418 -0.75
      vertex -4.75528 1.54508 -0.75
      vertex -0.151418 -0.466018 -0.75
    endloop
  endfacet
  facet normal 0 0 1
    outer loop
      vertex -0.466018 -0.151418 -0.75
      vertex -4.75528 1.54508 -0.75
      vertex -0.396418 -0.288015 -0.75
    endloop
  endfacet
  facet normal 0 0 1
    outer loop
      vertex -0.466018 0.151418 -0.75
      vertex -0.396418 0.288015 -0.75
      vertex -4.75528 1.54508 -0.75
    endloop
  endfacet
  facet normal -0.987689 -0.156433 0
    outer loop
      vertex -0.49 0 -0.75
      vertex -0.466018 -0.151418 -0.75
      vertex -0.49 0 3
    endloop
  endfacet
  facet normal -0.987689 -0.156433 0
    outer loop
      vertex -0.49 0 3
      vertex -0.466018 -0.151418 -0.75
      vertex -0.466018 -0.151418 3
    endloop
  endfacet
  facet normal -0.891006 -0.453992 0
    outer loop
      vertex -0.466018 -0.151418 -0.75
      vertex -0.396418 -0.288015 -0.75
      vertex -0.466018 -0.151418 3
    endloop
  endfacet
  facet normal -0.891006 -0.453992 0
    outer loop
      vertex -0.466018 -0.151418 3
      vertex -0.396418 -0.288015 -0.75
      vertex -0.396418 -0.288015 3
    endloop
  endfacet
  facet normal -0.707107 -0.707107 0
    outer loop
      vertex -0.396418 -0.288015 3
      vertex -0.396418 -0.288015 -0.75
      vertex -0.288015 -0.396418 -0.75
    endloop
  endfacet
  facet normal -0.707107 -0.707107 0
    outer loop
      vertex -0.288015 -0.396418 3
      vertex -0.396418 -0.288015 3
      vertex -0.288015 -0.396418 -0.75
    endloop
  endfacet
  facet normal -0.453992 -0.891006 0
    outer loop
      vertex -0.288015 -0.396418 3
      vertex -0.288015 -0.396418 -0.75
      vertex -0.151418 -0.466018 -0.75
    endloop
  endfacet
  facet normal -0.453992 -0.891006 0
    outer loop
      vertex -0.151418 -0.466018 3
      vertex -0.288015 -0.396418 3
      vertex -0.151418 -0.466018 -0.75
    endloop
  endfacet
  facet normal -0.156433 -0.987689 0
    outer loop
      vertex -0.151418 -0.466018 3
      vertex -0.151418 -0.466018 -0.75
      vertex 0 -0.49 -0.75
    endloop
  endfacet
  facet normal -0.156433 -0.987689 0
    outer loop
      vertex 0 -0.49 3
      vertex -0.151418 -0.466018 3
      vertex 0 -0.49 -0.75
    endloop
  endfacet
  facet normal 0.156433 -0.987689 0
    outer loop
      vertex 0 -0.49 3
      vertex 0 -0.49 -0.75
      vertex 0.151418 -0.466018 -0.75
    endloop
  endfacet
  facet normal 0.156433 -0.987689 0
    outer loop
      vertex 0.151418 -0.466018 3
      vertex 0 -0.49 3
      vertex 0.151418 -0.466018 -0.75
    endloop
  endfacet
  facet normal 0.453992 -0.891006 0
    outer loop
      vertex 0.151418 -0.466018 3
      vertex 0.151418 -0.466018 -0.75
      vertex 0.288015 -0.396418 -0.75
    endloop
  endfacet
  facet normal 0.453992 -0.891006 0
    outer loop
      vertex 0.288015 -0.396418 3
      vertex 0.151418 -0.466018 3
      vertex 0.288015 -0.396418 -0.75
    endloop
  endfacet
  facet normal 0.707107 -0.707107 0
    outer loop
      vertex 0.288015 -0.396418 3
      vertex 0.288015 -0.396418 -0.75
      vertex 0.396418 -0.288015 -0.75
    endloop
  endfacet
  facet normal 0.707107 -0.707107 0
    outer loop
      vertex 0.396418 -0.288015 3
      vertex 0.288015 -0.396418 3
      vertex 0.396418 -0.288015 -0.75
    endloop
  endfacet
  facet normal 0.891006 -0.453992 0
    outer loop
      vertex 0.396418 -0.288015 3
      vertex 0.396418 -0.288015 -0.75
      vertex 0.466018 -0.151418 -0.75
    endloop
  endfacet
  facet normal 0.891006 -0.453992 0
    outer loop
      vertex 0.466018 -0.151418 3
      vertex 0.396418 -0.288015 3
      vertex 0.466018 -0.151418 -0.75
    endloop
  endfacet
  facet normal 0.987689 -0.156433 0
    outer loop
      vertex 0.466018 -0.151418 3
      vertex 0.466018 -0.151418 -0.75
      vertex 0.49 0 -0.75
    endloop
  endfacet
  facet normal 0.987689 -0.156433 0
    outer loop
      vertex 0.49 0 3
      vertex 0.466018 -0.151418 3
      vertex 0.49 0 -0.75
    endloop
  endfacet
  facet normal 0.987689 0.156433 0
    outer loop
      vertex 0.49 0 -0.75
      vertex 0.466018 0.151418 -0.75
      vertex 0.466018 0.151418 3
    endloop
  endfacet
  facet normal 0.987689 0.156433 0
    outer loop
      vertex 0.49 0 3
      vertex 0.49 0 -0.75
      vertex 0.466018 0.151418 3
    endloop
  endfacet
  facet normal 0.891006 0.453992 0
    outer loop
      vertex 0.466018 0.151418 -0.75
      vertex 0.396418 0.288015 -0.75
      vertex 0.396418 0.288015 3
    endloop
  endfacet
  facet normal 0.891006 0.453992 0
    outer loop
      vertex 0.466018 0.151418 3
      vertex 0.466018 0.151418 -0.75
      vertex 0.396418 0.288015 3
    endloop
  endfacet
  facet normal 0.707107 0.707107 0
    outer loop
      vertex 0.288015 0.396418 -0.75
      vertex 0.288015 0.396418 3
      vertex 0.396418 0.288015 -0.75
    endloop
  endfacet
  facet normal 0.707107 0.707107 0
    outer loop
      vertex 0.396418 0.288015 -0.75
      vertex 0.288015 0.396418 3
      vertex 0.396418 0.288015 3
    endloop
  endfacet
  facet normal 0.453992 0.891006 0
    outer loop
      vertex 0.151418 0.466018 -0.75
      vertex 0.151418 0.466018 3
      vertex 0.288015 0.396418 -0.75
    endloop
  endfacet
  facet normal 0.453992 0.891006 0
    outer loop
      vertex 0.288015 0.396418 -0.75
      vertex 0.151418 0.466018 3
      vertex 0.288015 0.396418 3
    endloop
  endfacet
  facet normal 0.156433 0.987689 0
    outer loop
      vertex 0 0.49 -0.75
      vertex 0 0.49 3
      vertex 0.151418 0.466018 -0.75
    endloop
  endfacet
  facet normal 0.156433 0.987689 0
    outer loop
      vertex 0.151418 0.466018 -0.75
      vertex 0 0.49 3
      vertex 0.151418 0.466018 3
    endloop
  endfacet
  facet normal -0.156433 0.987689 0
    outer loop
      vertex -0.151418 0.466018 -0.75
      vertex -0.151418 0.466018 3
      vertex 0 0.49 -0.75
    endloop
  endfacet
  facet normal -0.156433 0.987689 0
    outer loop
      vertex 0 0.49 -0.75
      vertex -0.151418 0.466018 3
      vertex 0 0.49 3
    endloop
  endfacet
  facet normal -0.453992 0.891006 0
    outer loop
      vertex -0.288015 0.396418 -0.75
      vertex -0.288015 0.396418 3
      vertex -0.151418 0.466018 -0.75
    endloop
  endfacet
  facet normal -0.453992 0.891006 0
    outer loop
      vertex -0.151418 0.466018 -0.75
      vertex -0.288015 0.396418 3
      vertex -0.151418 0.466018 3
    endloop
  endfacet
  facet normal -0.707107 0.707107 0
    outer loop
      vertex -0.396418 0.288015 -0.75
      vertex -0.396418 0.288015 3
      vertex -0.288015 0.396418 -0.75
    endloop
  endfacet
  facet normal -0.707107 0.707107 0
    outer loop
      vertex -0.288015 0.396418 -0.75
      vertex -0.396418 0.288015 3
      vertex -0.288015 0.396418 3
    endloop
  endfacet
  facet normal -0.891006 0.453992 0
    outer loop
      vertex -0.466018 0.151418 -0.75
      vertex -0.466018 0.151418 3
      vertex -0.396418 0.288015 -0.75
    endloop
  endfacet
  facet normal -0.891006 0.453992 0
    outer loop
      vertex -0.396418 0.288015 -0.75
      vertex -0.466018 0.151418 3
      vertex -0.396418 0.288015 3
    endloop
  endfacet
  facet normal -0.987689 0.156433 0
    outer loop
      vertex -0.49 0 -0.75
      vertex -0.49 0 3
      vertex -0.466018 0.151418 -0.75
    endloop
  endfacet
  facet normal -0.987689 0.156433 0
    outer loop
      vertex -0.466018 0.151418 -0.75
      vertex -0.49 0 3
      vertex -0.466018 0.151418 3
    endloop
  endfacet
  facet normal 0 0 1
    outer loop
      vertex -0.466018 0.151418 3
      vertex -0.49 0 3
      vertex -0.466018 -0.151418 3
    endloop
  endfacet
  facet normal 0 0 1
    outer loop
      vertex -0.288015 -0.396418 3
      vertex -0.466018 0.151418 3
      vertex -0.396418 -0.288015 3
    endloop
  endfacet
  facet normal 0 0 1
    outer loop
      vertex -0.396418 -0.288015 3
      vertex -0.466018 0.151418 3
      vertex -0.466018 -0.151418 3
    endloop
  endfacet
  facet normal 0 0 1
    outer loop
      vertex -0.151418 -0.466018 3
      vertex -0.466018 0.151418 3
      vertex -0.288015 -0.396418 3
    endloop
  endfacet
  facet normal 0 0 1
    outer loop
      vertex 0 -0.49 3
      vertex -0.466018 0.151418 3
      vertex -0.151418 -0.466018 3
    endloop
  endfacet
  facet normal 0 0 1
    outer loop
      vertex 0.151418 -0.466018 3
      vertex -0.466018 0.151418 3
      vertex 0 -0.49 3
    endloop
  endfacet
  facet normal 0 0 1
    outer loop
      vertex 0.288015 -0.396418 3
      vertex -0.466018 0.151418 3
      vertex 0.151418 -0.466018 3
    endloop
  endfacet
  facet normal 0 0 1
    outer loop
      vertex 0.396418 -0.288015 3
      vertex -0.466018 0.151418 3
      vertex 0.288015 -0.396418 3
    endloop
  endfacet
  facet normal 0 0 1
    outer loop
      vertex 0.466018 -0.151418 3
      vertex -0.466018 0.151418 3
      vertex 0.396418 -0.288015 3
    endloop
  endfacet
  facet normal 0 0 1
    outer loop
      vertex 0.49 0 3
      vertex -0.466018 0.151418 3
      vertex 0.466018 -0.151418 3
    endloop
  endfacet
  facet normal 0 0 1
    outer loop
      vertex 0.466018 0.151418 3
      vertex -0.466018 0.151418 3
      vertex 0.49 0 3
    endloop
  endfacet
  facet normal 0 0 1
    outer loop
      vertex 0.396418 0.288015 3
      vertex -0.466018 0.151418 3
      vertex 0.466018 0.151418 3
    endloop
  endfacet
  facet normal 0 0 1
    outer loop
      vertex 0.288015 0.396418 3
      vertex -0.466018 0.151418 3
      vertex 0.396418 0.288015 3
    endloop
  endfacet
  facet normal 0 0 1
    outer loop
      vertex 0.151418 0.466018 3
      vertex -0.466018 0.151418 3
      vertex 0.288015 0.396418 3
    endloop
  endfacet
  facet normal 0 0 1
    outer loop
      vertex 0 0.49 3
      vertex -0.466018 0.151418 3
      vertex 0.151418 0.466018 3
    endloop
  endfacet
  facet normal 0 0 1
    outer loop
      vertex -0.151418 0.466018 3
      vertex -0.466018 0.151418 3
      vertex 0 0.49 3
    endloop
  endfacet
  facet normal 0 0 1
    outer loop
      vertex -0.288015 0.396418 3
      vertex -0.466018 0.151418 3
      vertex -0.151418 0.466018 3
    endloop
  endfacet
  facet normal 0 0 1
    outer loop
      vertex -0.396418 0.288015 3
      vertex -0.466018 0.151418 3
      vertex -0.288015 0.396418 3
    endloop
  endfacet
endsolid OpenSCAD_Model
